<svg width="70" height="71" viewBox="0 0 70 71" fill="none" xmlns="http://www.w3.org/2000/svg">
<g clip-path="url(#clip0_104_4836)">
<path d="M26.3518 60.4558C26.2353 60.5137 26.1133 60.5606 25.9877 60.5959H25.9302C26.0899 60.5538 26.2442 60.4943 26.3901 60.4185L26.3518 60.4558Z" fill="#56779C"/>
<path d="M25.1444 60.6709H24.9336H24.7803C24.9562 60.7116 25.1361 60.7335 25.3169 60.7363L25.1444 60.6709Z" fill="#56779C"/>
<path d="M25.6139 60.6615H25.3647C25.5259 60.6573 25.6863 60.6385 25.8439 60.6055L25.6139 60.6615Z" fill="#56779C"/>
<path d="M9.70703 53.1543C9.7655 53.2076 9.82976 53.2546 9.89868 53.2944C9.82976 53.2546 9.7655 53.2076 9.70703 53.1543V53.1543Z" fill="#56779C"/>
<path d="M58.0505 42.2744C58.0542 42.3022 58.0542 42.3306 58.0505 42.3585C58.0524 42.3739 58.0524 42.3897 58.0505 42.4052C58.0554 42.3618 58.0554 42.3178 58.0505 42.2744Z" fill="#56779C"/>
<path d="M9.6781 53.1352C9.64295 53.0875 9.61095 53.0376 9.58228 52.9858C9.61095 53.0376 9.64295 53.0875 9.6781 53.1352V53.1352Z" fill="#56779C"/>
<path d="M9.58245 52.9858C9.55242 52.943 9.52976 52.8956 9.51538 52.8457C9.52976 52.8956 9.55242 52.943 9.58245 52.9858Z" fill="#56779C"/>
<path d="M24.7227 60.6052L24.4927 60.5398C24.416 60.5398 24.3394 60.4744 24.2627 60.4277C24.4157 60.5122 24.5803 60.5751 24.7514 60.6145L24.7227 60.6052Z" fill="#56779C"/>
<path d="M52.4159 54.7875C52.5213 54.7315 52.5596 54.6755 52.5596 54.6381C52.5596 54.6008 52.5596 54.5447 52.4255 54.4887L47.8163 51.874C47.6525 51.7957 47.4717 51.7573 47.2893 51.7619C47.1025 51.7553 46.9173 51.7972 46.7527 51.8833L40.0449 55.6186C39.9395 55.6747 39.8916 55.7307 39.8916 55.7681C39.8916 55.8054 39.8916 55.8614 40.0353 55.9175L44.6828 58.5229C44.8429 58.6119 45.0259 58.654 45.2099 58.6443C45.3967 58.6518 45.5822 58.6098 45.7465 58.5229L52.4159 54.7875Z" fill="#007695"/>
<path d="M52.5501 54.2274L47.9122 51.622C47.7098 51.5181 47.4846 51.4639 47.2558 51.4639C47.0271 51.4639 46.8018 51.5181 46.5994 51.622L39.8917 55.3574C39.5276 55.5628 39.518 55.899 39.8917 56.1044L44.5009 58.7098C44.7037 58.8169 44.9314 58.8715 45.1621 58.8686C45.3957 58.8703 45.6261 58.8158 45.8328 58.7098L52.5406 54.9745C52.9239 54.7877 52.9143 54.4329 52.5501 54.2274ZM44.6829 58.523L40.0738 55.9176C39.9684 55.8616 39.93 55.8056 39.93 55.7682C39.93 55.7309 39.93 55.6749 40.0833 55.6188L46.7911 51.8835C46.9557 51.7974 47.1409 51.7555 47.3277 51.7621C47.5101 51.7575 47.6909 51.7959 47.8547 51.8742L52.4639 54.4889C52.5597 54.5449 52.5981 54.6009 52.5981 54.6383C52.5981 54.6757 52.5981 54.7317 52.4543 54.7877L45.7466 58.523C45.5823 58.61 45.3968 58.652 45.21 58.6444C45.026 58.6542 44.843 58.6121 44.6829 58.523Z" fill="#232323"/>
<path d="M3.30591 53.7977C3.4085 54.0207 3.58363 54.2045 3.8042 54.3207L28.3545 68.2348C28.4218 68.2745 28.4923 68.3089 28.5653 68.3375C28.6412 68.3752 28.7217 68.4034 28.8049 68.4215L28.9486 68.4682H29.0157H29.2169H29.4277H29.8781H30.1656H30.2902H30.4339C30.6257 68.4274 30.8099 68.3581 30.9801 68.2628L69.4346 46.5979L69.6166 46.4858L69.6741 46.4298C69.6741 46.4298 69.6741 46.3831 69.7412 46.3551C69.7672 46.3167 69.7897 46.276 69.8083 46.2337C69.8083 46.2337 69.8083 46.2337 69.8083 46.2337C69.8129 46.1934 69.8129 46.1526 69.8083 46.1123V47.2329C69.8083 47.2329 69.8083 47.3076 69.8083 47.3356C69.8083 47.3636 69.8083 47.3917 69.8083 47.4197C69.7991 47.464 69.7794 47.5055 69.7508 47.5411L69.6837 47.6158L69.6166 47.6811H69.5591L69.3771 47.8025L30.9897 69.3834C30.8184 69.4765 30.6345 69.5457 30.4435 69.5888H30.2997H30.1656C30.0732 69.5985 29.9801 69.5985 29.8877 69.5888L29.7056 69.7289H29.4852H29.284C29.2173 69.7386 29.1495 69.7386 29.0828 69.7289H29.0157C28.963 69.7145 28.9118 69.6958 28.8624 69.6729C28.7842 69.649 28.7074 69.6209 28.6324 69.5888C28.5653 69.5888 28.4791 69.5888 28.4216 69.5048L3.83295 56.8514C3.68671 56.7827 3.56076 56.6791 3.4669 56.55C3.37304 56.421 3.31435 56.2708 3.29633 56.1136C3.29633 55.2732 3.29633 54.4421 3.29633 53.6016C3.28579 53.667 3.28905 53.7337 3.30591 53.7977V53.7977Z" fill="#0A1D23"/>
<path d="M27.3484 55.2358L31.4688 57.5704L28.7474 59.1112L24.627 56.7673L27.3484 55.2358Z" fill="#00586F"/>
<path d="M40.9553 47.5781L45.0758 49.9127L42.3544 51.4442L38.2339 49.1096L40.9553 47.5781Z" fill="#00586F"/>
<path d="M23.9562 57.1499L28.067 59.4565L26.3901 60.3903C26.2441 60.4661 26.0898 60.5257 25.9302 60.5677H25.8152C25.6576 60.6007 25.4972 60.6195 25.336 60.6237V60.6237C25.1553 60.621 24.9753 60.5991 24.7994 60.5584V60.5584C24.6283 60.519 24.4637 60.4561 24.3107 60.3716L21.2539 58.644L23.9562 57.1499Z" fill="#00586F"/>
<path d="M37.5537 49.502L41.6742 51.8272L38.9527 53.3587L34.8323 51.0241L37.5537 49.502Z" fill="#00586F"/>
<path d="M19.8165 54.8154L23.3237 56.8045L20.6023 58.336L20.5927 58.3453L17.0759 56.3562H17.0951L19.8165 54.8154Z" fill="#00586F"/>
<path d="M15.6863 52.481L19.2031 54.47L16.4721 56.0015L16.4625 56.0108L12.9553 54.0218L12.9745 54.0124L15.6863 52.481Z" fill="#00586F"/>
<path d="M44.3572 45.6733L48.4776 48.0079L45.7658 49.5301L41.6357 47.1955L44.3572 45.6733Z" fill="#00586F"/>
<path d="M51.1606 41.8354L55.2907 44.17L52.5693 45.7015L48.4392 43.3669L51.1606 41.8354Z" fill="#00586F"/>
<path d="M30.75 53.3306L34.8705 55.6558L32.149 57.1873L28.0286 54.8527L30.75 53.3306Z" fill="#00586F"/>
<path d="M47.759 43.7495L51.8891 46.0841L49.1581 47.6156L45.0376 45.281L47.759 43.7495Z" fill="#00586F"/>
<path d="M40.2943 42.6011L36.7871 40.612L39.5085 39.0806L43.0253 41.0696L40.2943 42.6011Z" fill="#00586F"/>
<path d="M43.6001 36.7834L46.3024 35.2612L49.8095 37.2503L47.1073 38.7724L43.6001 36.7834Z" fill="#00586F"/>
<path d="M33.4906 46.4297L29.9834 44.4407L32.7048 42.9092L36.212 44.8982L33.4906 46.4297Z" fill="#00586F"/>
<path d="M30.089 48.3349L26.5818 46.3552L29.3032 44.8237L32.8104 46.8128L30.089 48.3349Z" fill="#00586F"/>
<path d="M23.2853 52.1729L19.7781 50.1838L22.4995 48.6523L26.0067 50.6414L23.2853 52.1729Z" fill="#00586F"/>
<path d="M39.5755 38.3521L36.0684 36.363L38.7898 34.8315L42.297 36.8206L39.5755 38.3521Z" fill="#00586F"/>
<path d="M36.902 44.5058L33.3948 42.5261L36.1066 40.9946L39.6138 42.9837L36.902 44.5058Z" fill="#00586F"/>
<path d="M47.7207 39.1178L50.423 37.5957L53.9397 39.5848L51.2279 41.1069L47.7207 39.1178Z" fill="#00586F"/>
<path d="M19.8837 54.087L16.3765 52.1072L19.0979 50.5664L22.6051 52.5555L19.8837 54.087Z" fill="#00586F"/>
<path d="M26.735 54.8904L24.0136 56.4219L20.4968 54.4422L23.2183 52.9014L26.735 54.8904Z" fill="#00586F"/>
<path d="M36.1737 40.2666L32.6665 38.2776L35.3879 36.7461L38.8951 38.7258L36.1737 40.2666Z" fill="#00586F"/>
<path d="M43.6384 41.415L47.1456 43.4041L44.4242 44.9356L40.917 42.9465L43.6384 41.415Z" fill="#00586F"/>
<path d="M26.6871 50.2583L23.1799 48.2693L25.9014 46.7378L29.4085 48.7269L26.6871 50.2583Z" fill="#00586F"/>
<path d="M26.6201 50.9961L30.1369 52.9758L27.4155 54.5073L23.8987 52.5182L26.6201 50.9961Z" fill="#00586F"/>
<path d="M33.4235 47.1675L36.9403 49.1472L34.2189 50.6787L30.7117 48.6896L33.4235 47.1675Z" fill="#00586F"/>
<path d="M30.0313 49.0723L33.5385 51.0613L30.8171 52.5928L27.3003 50.6037L30.0313 49.0723Z" fill="#00586F"/>
<path d="M39.4702 34.4487L41.1088 33.5149C41.4384 33.3517 41.8028 33.2666 42.1725 33.2666C42.5421 33.2666 42.9066 33.3517 43.2361 33.5149L45.6796 34.897L42.9774 36.4191L39.4702 34.4487Z" fill="#00586F"/>
<path d="M40.2368 43.3296L43.744 45.3187L41.0226 46.8501L37.5154 44.8611L40.2368 43.3296Z" fill="#00586F"/>
<path d="M9.89861 51.052L11.566 50.1182L15.0731 52.1072L12.3517 53.6667L9.91778 52.2847C9.84886 52.2449 9.7846 52.1979 9.72613 52.1446V52.1446C9.67415 52.0953 9.6261 52.0422 9.58239 51.9858V51.9858C9.55235 51.943 9.5297 51.8957 9.51531 51.8458C9.51531 51.8458 9.51531 51.7897 9.51531 51.7524C9.49617 51.6112 9.52283 51.4678 9.59157 51.3422C9.66032 51.2166 9.76768 51.1151 9.89861 51.052V51.052Z" fill="#00586F"/>
<path d="M58.0217 42.4328C57.9797 42.5462 57.9069 42.6462 57.8109 42.7223C57.7495 42.7763 57.682 42.8233 57.6097 42.8623L55.9806 43.7962L51.8506 41.4616L54.5624 39.9395L57.6097 41.7137C57.731 41.7662 57.8357 41.8493 57.9132 41.9543C57.9907 42.0594 58.0381 42.1826 58.0504 42.3114V42.3114C58.0464 42.3529 58.0367 42.3937 58.0217 42.4328Z" fill="#00586F"/>
<path d="M19.1649 49.8379L15.6577 47.8489L18.3696 46.3174L21.8767 48.3064L19.1649 49.8379Z" fill="#00586F"/>
<path d="M15.7535 51.7525L12.2463 49.7634L14.9678 48.2319L18.4845 50.221L15.7535 51.7525Z" fill="#00586F"/>
<path d="M25.9684 46L22.4612 44.0202L25.173 42.4888L28.6898 44.4778L25.9684 46Z" fill="#00586F"/>
<path d="M22.5668 47.9239L19.0596 45.9348L21.781 44.4033L25.2882 46.3924L22.5668 47.9239Z" fill="#00586F"/>
<path d="M29.3702 44.0952L25.863 42.1062L28.5845 40.5747L32.0916 42.5638L29.3702 44.0952Z" fill="#00586F"/>
<path d="M34.1518 51.4072L38.2723 53.7418L35.5509 55.2733L31.4304 52.9387L34.1518 51.4072Z" fill="#00586F"/>
<path d="M36.8349 45.2437L40.3421 47.2327L37.6207 48.7642L34.1135 46.7751L36.8349 45.2437Z" fill="#00586F"/>
<path d="M32.7721 42.1714L29.2649 40.1916L31.9863 38.6602L35.4935 40.6492L32.7721 42.1714Z" fill="#00586F"/>
<path d="M40.1985 38.6975L42.9103 37.166L46.4271 39.1551L43.7057 40.6866L40.1985 38.6975Z" fill="#00586F"/>
<path d="M44.3188 41.032L47.0403 39.5005L50.5475 41.4895L47.826 43.021L44.3188 41.032Z" fill="#00586F"/>
<path d="M51.841 41.4525L54.5529 39.9303L53.9396 39.5848L51.2277 41.1069L47.7205 39.1179L50.4228 37.5957L49.8287 37.2409L47.1264 38.763L43.6001 36.7833L46.3023 35.2612L45.6795 34.9156L42.9772 36.4378L39.47 34.4487L38.7897 34.8316L42.2969 36.8207L39.5754 38.3521L36.0683 36.3631L35.3879 36.746L38.8951 38.735L36.1737 40.2665L32.6665 38.2774L31.9861 38.6603L35.455 40.6494L32.7719 42.1715L29.2647 40.1918L28.5843 40.5747L32.0915 42.5637L29.3701 44.0952L25.8725 42.1061L25.1921 42.489L28.6897 44.5154L25.9683 46.0002L22.4611 44.0205L21.7808 44.4034L25.288 46.3831L22.5665 47.9146L19.0594 45.9255L18.379 46.3084L21.8862 48.2974L19.1648 49.8383L15.6576 47.8492L14.9772 48.2321L18.4844 50.2211L15.763 51.7526L12.2558 49.7636L11.5754 50.1464L15.0826 52.1355L12.3516 53.667L12.9745 54.0125L15.6959 52.481L19.1648 54.4701L16.4721 56.0016L17.0854 56.3471L19.8164 54.7876L23.3236 56.7766L20.6021 58.3361L21.2154 58.691L23.956 57.1502L28.0669 59.4567L28.7472 59.0739L24.6268 56.7299L27.3482 55.1985L31.4687 57.533L32.149 57.1502L28.0286 54.8156L30.75 53.2934L34.8704 55.6187L35.5508 55.2358L31.4303 52.9199L34.1518 51.3884L38.2722 53.723L38.9526 53.3401L34.8321 51.0523L37.5535 49.5208L41.674 51.8553L42.3544 51.4725L38.2339 49.1379L40.9553 47.6064L45.0758 49.941L45.7657 49.5581L41.6357 47.2235L44.3571 45.7014L48.4776 48.036L49.1579 47.6438L45.0375 45.2812L47.7589 43.7497L51.8889 46.0843L52.5693 45.7014L48.4392 43.3668L51.1607 41.8353L55.2907 44.1699L55.9711 43.787L51.841 41.4525ZM40.917 42.9466L43.6384 41.4151L47.1456 43.4042L44.4242 44.9357L40.917 42.9466ZM37.5152 44.8143L40.2462 43.3295L43.7534 45.3185L41.0224 46.85L37.5152 44.8143ZM34.1134 46.7753L36.8348 45.2438L40.342 47.2329L37.6206 48.7644L34.1134 46.7753ZM30.7116 48.643L33.4235 47.1115L36.9403 49.1846L34.2188 50.6787L30.7116 48.643ZM27.3003 50.5573L30.0313 49.0258L33.5385 51.0523L30.8171 52.5837L27.3003 50.5573ZM23.8985 52.425L26.6199 50.9028L30.1367 52.8826L27.4153 54.5074L23.8985 52.425ZM20.4967 54.2926L23.2181 52.9199L26.7349 54.909L24.0135 56.4405L20.4967 54.2926ZM22.6049 52.425L19.8834 53.9565L16.3763 51.9674L19.0977 50.4359L22.6049 52.425ZM26.0067 50.5573L23.2852 52.1728L19.778 50.1838L22.4995 48.6523L26.0067 50.5573ZM29.4084 48.643L26.687 50.1745L23.1798 48.2508L25.8725 46.738L29.4084 48.643ZM32.8102 46.7753L30.0888 48.3441L26.5816 46.3831L29.303 44.8516L32.8102 46.7753ZM36.212 44.8609L33.5385 46.4298L30.0313 44.4407L32.7527 42.9092L36.212 44.8609ZM39.6138 42.9933L36.9019 44.5154L33.3947 42.5357L36.1066 41.0042L39.6138 42.9933ZM43.0251 41.1256L40.2941 42.6478L36.7869 40.6587L39.5179 39.1272L43.0251 41.1256ZM46.4173 39.2113L43.7055 40.6867L40.2462 38.6977L42.9676 37.1662L46.4173 39.2113ZM50.5474 41.5458L47.826 43.0213L44.3188 41.0322L47.0402 39.5008L50.5474 41.5458Z" fill="#0A1D23"/>
<path d="M9.46729 51.7617C9.46729 51.7617 9.46729 51.8271 9.46729 51.8551C9.49715 51.9051 9.53611 51.9494 9.58227 51.9858C9.6178 52.0317 9.6562 52.0754 9.69726 52.1166V52.1166C9.75573 52.1699 9.82 52.2169 9.88891 52.2567L12.3229 53.6387L12.9457 53.9842L16.4529 55.9733L17.0662 56.3188L20.583 58.3079L21.1962 58.6627L24.2626 60.3903C24.3393 60.3903 24.4159 60.465 24.4926 60.5024L24.7226 60.5678H24.7801H24.9334H25.1442H25.3646H25.6138H25.815H25.93H25.9875C26.1131 60.5324 26.2351 60.4855 26.3516 60.4277L28.0285 59.4938L28.7089 59.111L31.4687 57.5888L32.149 57.206L34.8704 55.6745L35.5508 55.2916L38.2722 53.7601L38.9526 53.3773L41.674 51.8458L42.3543 51.4629L45.0374 49.9127L45.7274 49.5299L48.4392 48.0077L49.1196 47.6155L51.8506 46.084L52.5309 45.7012L55.2524 44.1697L55.9327 43.7868L57.5617 42.853C57.6341 42.8139 57.7016 42.7669 57.763 42.7129V42.7129C57.8063 42.6773 57.845 42.6365 57.878 42.5915C57.904 42.553 57.9264 42.5124 57.945 42.4701V42.4701C57.9474 42.4546 57.9474 42.4389 57.945 42.4234C57.9497 42.3956 57.9497 42.3672 57.945 42.3394V43.3292C57.945 43.3292 57.945 43.3292 57.945 43.3852C57.9497 43.4131 57.9497 43.4415 57.945 43.4693V43.4693C57.9337 43.51 57.9142 43.5481 57.8875 43.5814V43.5814C57.8571 43.6283 57.8181 43.6694 57.7726 43.7028V43.7028C57.7112 43.7568 57.6437 43.8038 57.5713 43.8428L26.3995 61.4362H26.3516L25.9971 61.567H25.93H25.815H25.6138C25.5308 61.5715 25.4476 61.5715 25.3646 61.567H25.1921H24.9813H24.8376H24.7801C24.7014 61.5446 24.6245 61.5165 24.5501 61.4829C24.4683 61.4606 24.3882 61.4325 24.3105 61.3989L9.93683 53.2559C9.81492 53.2042 9.70961 53.1214 9.63202 53.0162C9.55443 52.911 9.50744 52.7873 9.49603 52.6582V51.687C9.49603 51.687 9.46729 51.743 9.46729 51.7617Z" fill="#0A1D23"/>
<path d="M1.10193 24.0269C1.09776 23.974 1.09776 23.921 1.10193 23.8681C1.09717 23.8247 1.09717 23.7808 1.10193 23.7374V23.7374V23.5973V23.4759V23.4012C1.10193 23.4012 1.10193 23.3265 1.10193 23.2891C1.10733 23.2551 1.10733 23.2205 1.10193 23.1864C1.10552 23.1523 1.10552 23.1179 1.10193 23.0837L1.15942 22.981C1.15942 22.981 1.15942 22.9156 1.20734 22.8876C1.20734 22.8876 1.20734 22.8876 1.20734 22.8409L1.27441 22.7382C1.29101 22.7007 1.31365 22.666 1.34149 22.6355L1.41815 22.5514C1.56526 22.4268 1.734 22.3288 1.91644 22.2619V22.2619V22.2152L2.05059 22.1032C2.15169 22.0091 2.26434 21.9275 2.38598 21.8604L40.8788 0.176818C40.9424 0.141403 41.0099 0.113204 41.08 0.0927734V0.0927734H41.2046H41.31H41.3867H41.6166H41.7125H41.7795L42.1053 0.27954L42.2778 0.382261L42.7282 0.634396H42.7857H42.7186H42.6611H42.5941H42.5174H42.3641H42.2778H42.182L42.1628 0.625057H42.1053C42.0412 0.645343 41.98 0.67359 41.9233 0.709102V0.709102L37.7836 3.09971L3.45922 22.4113C3.33912 22.4808 3.22672 22.5621 3.12383 22.6541V22.6541C3.08701 22.6837 3.05474 22.7183 3.02801 22.7569L2.97051 22.8036C2.93024 22.843 2.89486 22.8868 2.8651 22.9343L2.74053 23.037C2.71188 23.0689 2.68622 23.1033 2.66387 23.1397L2.5968 23.2425V23.2891C2.59514 23.3234 2.59514 23.3576 2.5968 23.3919C2.57707 23.421 2.56098 23.4524 2.54888 23.4852C2.54546 23.51 2.54546 23.5352 2.54888 23.56V23.56C2.55054 23.5942 2.55054 23.6285 2.54888 23.6627C2.54888 23.6627 2.54888 23.7374 2.54888 23.7747C2.553 23.812 2.553 23.8495 2.54888 23.8868V24.0082V24.1483C2.54888 24.195 2.54888 24.2323 2.54888 24.279C2.54426 24.3318 2.54426 24.3849 2.54888 24.4378L2.61596 47.5221V52.1072C2.60444 52.2654 2.63447 52.4239 2.70321 52.5676C2.77194 52.7114 2.87713 52.8358 3.00884 52.9289C1.91644 52.7048 1.13068 52.2753 0.383243 51.855C0.256134 51.7626 0.154575 51.6408 0.0876755 51.5006C0.0207764 51.3604 -0.00936899 51.2063 -5.59537e-05 51.0519L1.10193 24.0269Z" fill="#004253"/>
<path d="M2.21356 47.7089L2.14648 24.6246C2.14648 24.5312 2.15607 24.4379 2.22314 24.2511C2.26034 24.0356 2.32471 23.8255 2.41479 23.6254C2.46271 23.5227 2.56811 23.42 2.56811 23.3266L2.7406 23.0651C2.79915 22.9833 2.86317 22.9053 2.93225 22.8317L2.98974 22.785C3.03203 22.7391 3.07682 22.6955 3.1239 22.6542C3.22679 22.5622 3.33918 22.4809 3.45928 22.4115L37.7837 3.09981L41.9138 0.821264C42.1102 0.706088 42.3362 0.647786 42.5654 0.653174C42.6655 0.657986 42.7635 0.683448 42.8528 0.727881C42.986 0.821918 43.0921 0.947769 43.1609 1.09333C43.2297 1.23888 43.2589 1.39925 43.2457 1.55899L43.3224 29.2191C43.2981 29.6141 43.1912 30.0001 43.0083 30.3533C42.8253 30.7066 42.5703 31.0198 42.2587 31.2735C42.1796 31.3348 42.0963 31.391 42.0096 31.4416L3.52636 53.0318C3.37243 53.1248 3.19871 53.1823 3.01849 53.1999C2.53937 53.1999 2.21356 52.873 2.21356 52.266V47.7089Z" fill="#007695"/>
<path d="M40.9842 4.8277C40.974 4.77328 40.9579 4.72007 40.9363 4.66895C40.9579 4.72007 40.974 4.77328 40.9842 4.8277Z" fill="white"/>
<path d="M39.8534 4.42596L38.7898 5.03295L5.50024 23.7563C5.16624 23.97 4.88826 24.2571 4.68857 24.5944C4.48889 24.9317 4.37305 25.3099 4.35034 25.6986L4.41742 47.541V48.7549C4.40639 48.8418 4.40639 48.9296 4.41742 49.0164C4.41202 48.9356 4.41202 48.8545 4.41742 48.7736V48.6989L38.6269 29.4526C39.0145 29.2109 39.3369 28.8821 39.567 28.4937C39.7972 28.1053 39.9282 27.6688 39.9492 27.2208L39.8822 4.4353C40.3517 4.18316 40.7446 4.27655 40.9171 4.64074C40.7542 4.25787 40.3421 4.15515 39.8534 4.42596Z" fill="#F2C53D"/>
<path d="M4.427 48.6988L38.6364 29.4525C39.0241 29.2108 39.3465 28.8819 39.5766 28.4936C39.8067 28.1052 39.9378 27.6686 39.9588 27.2206L39.8822 4.41647C40.3325 4.155 40.7542 4.24838 40.9267 4.64059C40.9483 4.69172 40.9644 4.74493 40.9746 4.79934C40.985 4.88308 40.985 4.96774 40.9746 5.05148L41.0417 28.1265C41.0208 28.5133 40.9067 28.8899 40.7086 29.2258C40.5104 29.5616 40.2339 29.8473 39.9013 30.0595L5.5769 49.4178C5.02112 49.7353 4.56116 49.5486 4.44617 49.0163C4.44076 48.9354 4.44076 48.8543 4.44617 48.7735L4.427 48.6988Z" fill="#00AED6"/>
<path style="mix-blend-mode:overlay" opacity="0.16" d="M42.019 31.4417L3.60281 53.0599C3.50566 53.1291 3.42587 53.2188 3.36944 53.3223C3.313 53.4258 3.2814 53.5405 3.277 53.6576V53.6576C3.26769 53.7227 3.26769 53.7886 3.277 53.8537V53.8537C3.37591 54.0813 3.55174 54.2692 3.77529 54.386L28.3639 68.2907C28.5477 68.3972 28.7486 68.473 28.958 68.5149C29.1781 68.5638 29.4031 68.5889 29.6288 68.5896V68.5896C29.8317 68.5862 30.0338 68.5644 30.2325 68.5242H30.3762C30.5673 68.481 30.7512 68.4119 30.9224 68.3187L69.444 46.6539C69.5187 46.6139 69.5893 46.5669 69.6548 46.5138V46.5138C69.7155 46.4705 69.7674 46.4167 69.8081 46.355V46.355C69.8475 46.3 69.8797 46.2404 69.904 46.1776C70.0189 45.8414 69.8465 45.4866 69.3961 45.2438L44.9129 31.2643C44.5034 31.0661 44.0525 30.9629 43.5953 30.9629C43.1381 30.9629 42.6871 31.0661 42.2777 31.2643L42.019 31.4417Z" fill="url(#paint0_linear_104_4836)"/>
<path d="M3.83301 54.3112L10.2149 57.6917C12.3518 58.8123 14.4504 59.9796 16.5681 61.1282L22.9021 64.5927L26.0548 66.3483L27.6263 67.2821L28.4216 67.721C28.6432 67.8639 28.8902 67.9652 29.1499 68.0199H29.102L29.6482 68.0759H30.0123H30.1848H30.2327C30.2327 68.0759 30.1273 68.0759 30.1848 68.0759H30.2806C30.2806 68.0759 30.7502 67.9078 30.7885 67.8705L31.421 67.5063L33.922 66.0775C35.5893 65.125 37.2663 64.1912 38.9528 63.276L49.0431 57.673C50.7201 56.7392 52.4258 55.8054 54.1123 54.8715L59.2197 51.986C60.9062 51.0522 62.6119 50.1744 64.3176 49.2685L69.4251 46.5791V46.6351L49.3498 57.9625L39.2882 63.6309L34.2574 66.4324L31.7468 67.8611L31.1239 68.2066C30.9026 68.3191 30.6718 68.4128 30.434 68.4868C30.1848 68.5428 29.9548 68.5428 29.7057 68.5802L28.9678 68.5055C28.6713 68.4341 28.3894 68.3141 28.1342 68.1506L27.3484 67.7024L25.7769 66.8152L22.6338 65.0596L16.3477 61.5017L3.83301 54.3673V54.3112Z" fill="#007695"/>
<g style="mix-blend-mode:multiply">
<g style="mix-blend-mode:multiply" opacity="0.02">
<path d="M56.6611 41.8352C56.6611 45.4118 50.6145 48.316 43.1594 48.316C35.7042 48.316 29.7056 45.4491 29.7056 41.8352C29.7056 38.2213 35.7042 35.3638 43.121 35.3638C50.5379 35.3638 56.6611 38.2586 56.6611 41.8352Z" fill="#FCFCFC"/>
</g>
<g style="mix-blend-mode:multiply" opacity="0.04">
<path d="M56.4695 41.8351C56.4695 45.365 50.5092 48.2505 43.1212 48.2505C35.7331 48.2505 29.8015 45.393 29.8015 41.8631C29.8015 38.3332 35.8001 35.457 43.1212 35.457C50.4422 35.457 56.4695 38.3146 56.4695 41.8351Z" fill="#F9F9F9"/>
</g>
<g style="mix-blend-mode:multiply" opacity="0.06">
<path d="M56.2779 41.835C56.2779 45.3182 50.4038 48.1291 43.1595 48.1291C35.9151 48.1291 30.0315 45.3276 30.0315 41.835C30.0315 38.3425 35.9056 35.541 43.1595 35.541C50.4134 35.541 56.2779 38.3612 56.2779 41.835Z" fill="#F6F6F6"/>
</g>
<g style="mix-blend-mode:multiply" opacity="0.08">
<path d="M56.0863 41.8349C56.0863 45.2621 50.3368 48.0449 43.15 48.0449C35.9631 48.0449 30.2136 45.2434 30.2136 41.8349C30.2136 38.4264 35.9631 35.6343 43.15 35.6343C50.3368 35.6343 56.0863 38.4078 56.0863 41.8349Z" fill="#F3F3F3"/>
</g>
<g style="mix-blend-mode:multiply" opacity="0.1">
<path d="M43.1497 47.9519C50.1884 47.9519 55.8944 45.2134 55.8944 41.8353C55.8944 38.4572 50.1884 35.7188 43.1497 35.7188C36.111 35.7188 30.405 38.4572 30.405 41.8353C30.405 45.2134 36.111 47.9519 43.1497 47.9519Z" fill="#F0F0F0"/>
</g>
<g style="mix-blend-mode:multiply" opacity="0.12">
<path d="M43.1498 47.8584C50.0879 47.8584 55.7124 45.1617 55.7124 41.8352C55.7124 38.5087 50.0879 35.812 43.1498 35.812C36.2116 35.812 30.5872 38.5087 30.5872 41.8352C30.5872 45.1617 36.2116 47.8584 43.1498 47.8584Z" fill="#EDEDED"/>
</g>
<g style="mix-blend-mode:multiply" opacity="0.14">
<path d="M43.1498 47.7649C49.9821 47.7649 55.5208 45.1101 55.5208 41.8351C55.5208 38.5602 49.9821 35.9053 43.1498 35.9053C36.3175 35.9053 30.7788 38.5602 30.7788 41.8351C30.7788 45.1101 36.3175 47.7649 43.1498 47.7649Z" fill="#EAEAEA"/>
</g>
<g style="mix-blend-mode:multiply" opacity="0.16">
<path d="M55.3292 41.835C55.3292 45.066 49.8767 47.6808 43.1498 47.6808C36.4229 47.6808 30.9609 45.066 30.9609 41.835C30.9609 38.6039 36.4134 35.9985 43.1211 35.9985C49.8288 35.9985 55.3292 38.6133 55.3292 41.835Z" fill="#E7E7E7"/>
</g>
<g style="mix-blend-mode:multiply" opacity="0.18">
<path d="M55.1376 41.8352C55.1376 45.0196 49.7714 47.5876 43.1499 47.5876C36.5284 47.5876 31.1526 45.0196 31.1526 41.8352C31.1526 38.6509 36.5188 36.1108 43.1211 36.1108C49.7234 36.1108 55.1376 38.6602 55.1376 41.8352Z" fill="#E4E4E4"/>
</g>
<g style="mix-blend-mode:multiply" opacity="0.2">
<path d="M43.1403 47.4943C49.6604 47.4943 54.9459 44.9607 54.9459 41.8353C54.9459 38.7099 49.6604 36.1763 43.1403 36.1763C36.6203 36.1763 31.3347 38.7099 31.3347 41.8353C31.3347 44.9607 36.6203 47.4943 43.1403 47.4943Z" fill="#E1E1E1"/>
</g>
<g style="mix-blend-mode:multiply" opacity="0.22">
<path d="M54.7639 41.8349C54.7639 44.9166 49.5606 47.4379 43.1403 47.4379C36.7201 47.4379 31.5264 44.9446 31.5264 41.8349C31.5264 38.7253 36.7297 36.2319 43.1403 36.2319C49.551 36.2319 54.7639 38.7626 54.7639 41.8349Z" fill="#DEDEDE"/>
</g>
<g style="mix-blend-mode:multiply" opacity="0.24">
<path d="M54.6201 41.8351C54.6201 44.8701 49.4552 47.3167 43.1212 47.3167C36.7872 47.3167 31.718 44.8701 31.718 41.8351C31.718 38.8002 36.8351 36.3535 43.1212 36.3535C49.4073 36.3535 54.6201 38.8095 54.6201 41.8351Z" fill="#DBDBDB"/>
</g>
<g style="mix-blend-mode:multiply" opacity="0.25">
<path d="M54.3804 41.835C54.3804 44.8139 49.3496 47.2325 43.1401 47.2325C36.9307 47.2325 31.8999 44.8139 31.8999 41.835C31.8999 38.8561 36.9307 36.4468 43.121 36.4468C49.3113 36.4468 54.3804 38.8561 54.3804 41.835Z" fill="#D8D8D8"/>
</g>
<g style="mix-blend-mode:multiply" opacity="0.27">
<path d="M43.1401 47.1391C49.2421 47.1391 54.1887 44.7643 54.1887 41.8349C54.1887 38.9055 49.2421 36.5308 43.1401 36.5308C37.0382 36.5308 32.0916 38.9055 32.0916 41.8349C32.0916 44.7643 37.0382 47.1391 43.1401 47.1391Z" fill="#D5D5D5"/>
</g>
<g style="mix-blend-mode:multiply" opacity="0.29">
<path d="M43.1402 47.0461C49.1416 47.0461 54.0067 44.7131 54.0067 41.8353C54.0067 38.9575 49.1416 36.6245 43.1402 36.6245C37.1388 36.6245 32.2737 38.9575 32.2737 41.8353C32.2737 44.7131 37.1388 47.0461 43.1402 47.0461Z" fill="#D2D2D2"/>
</g>
<g style="mix-blend-mode:multiply" opacity="0.31">
<path d="M43.1402 46.9526C49.0358 46.9526 53.8151 44.6614 53.8151 41.8352C53.8151 39.0089 49.0358 36.7178 43.1402 36.7178C37.2446 36.7178 32.4653 39.0089 32.4653 41.8352C32.4653 44.6614 37.2446 46.9526 43.1402 46.9526Z" fill="#CFCFCF"/>
</g>
<g style="mix-blend-mode:multiply" opacity="0.33">
<path d="M53.6619 41.835C53.6619 44.6365 48.9665 46.8684 43.1212 46.8684C37.2759 46.8684 32.6379 44.6179 32.6379 41.835C32.6379 39.0522 37.3717 36.811 43.1212 36.811C48.8707 36.811 53.6619 39.0616 53.6619 41.835Z" fill="#CCCCCC"/>
</g>
<g style="mix-blend-mode:multiply" opacity="0.35">
<path d="M43.1308 46.775C48.8199 46.775 53.4319 44.5633 53.4319 41.835C53.4319 39.1067 48.8199 36.895 43.1308 36.895C37.4416 36.895 32.8296 39.1067 32.8296 41.835C32.8296 44.5633 37.4416 46.775 43.1308 46.775Z" fill="#C9C9C9"/>
</g>
<g style="mix-blend-mode:multiply" opacity="0.37">
<path d="M53.2403 41.8354C53.2403 44.5155 48.7173 46.6913 43.1308 46.6913C37.5442 46.6913 33.0212 44.5155 33.0212 41.8354C33.0212 39.1553 37.5442 36.9888 43.1212 36.9888C48.6982 36.9888 53.2403 39.1646 53.2403 41.8354Z" fill="#C6C6C6"/>
</g>
<g style="mix-blend-mode:multiply" opacity="0.39">
<path d="M53.0486 41.835C53.0486 44.4684 48.6119 46.5975 43.1308 46.5975C37.6496 46.5975 33.2129 44.5151 33.2129 41.835C33.2129 39.1549 37.6496 37.0444 43.1212 37.0444C48.5928 37.0444 53.0486 39.2109 53.0486 41.835Z" fill="#C3C3C3"/>
</g>
<g style="mix-blend-mode:multiply" opacity="0.41">
<path d="M52.8568 41.8352C52.8568 44.4125 48.5064 46.5043 43.1306 46.5043C37.7548 46.5043 33.3948 44.4125 33.3948 41.8352C33.3948 39.2578 37.7548 37.166 43.1306 37.166C48.5064 37.166 52.8568 39.2578 52.8568 41.8352Z" fill="#C0C0C0"/>
</g>
<g style="mix-blend-mode:multiply" opacity="0.43">
<path d="M43.1306 46.4108C48.4017 46.4108 52.6747 44.3622 52.6747 41.8351C52.6747 39.3079 48.4017 37.2593 43.1306 37.2593C37.8595 37.2593 33.5864 39.3079 33.5864 41.8351C33.5864 44.3622 37.8595 46.4108 43.1306 46.4108Z" fill="#BDBDBD"/>
</g>
<g style="mix-blend-mode:multiply" opacity="0.45">
<path d="M43.1211 46.3173C48.2863 46.3173 52.4736 44.3105 52.4736 41.8349C52.4736 39.3594 48.2863 37.3525 43.1211 37.3525C37.9558 37.3525 33.7686 39.3594 33.7686 41.8349C33.7686 44.3105 37.9558 46.3173 43.1211 46.3173Z" fill="#BABABA"/>
</g>
<g style="mix-blend-mode:multiply" opacity="0.47">
<path d="M52.2915 41.8353C52.2915 44.2633 48.1902 46.2337 43.1211 46.2337C38.0519 46.2337 33.9602 44.2633 33.9602 41.8353C33.9602 39.4073 38.0615 37.4463 43.1211 37.4463C48.1806 37.4463 52.2915 39.4073 52.2915 41.8353Z" fill="#B7B7B7"/>
</g>
<g style="mix-blend-mode:multiply" opacity="0.49">
<path d="M52.0999 41.8352C52.0999 44.2165 48.0848 46.1402 43.1211 46.1402C38.1574 46.1402 34.1423 44.2165 34.1423 41.8352C34.1423 39.454 38.167 37.5303 43.1211 37.5303C48.0753 37.5303 52.0999 39.4633 52.0999 41.8352Z" fill="#B4B4B4"/>
</g>
<g style="mix-blend-mode:multiply" opacity="0.51">
<path d="M51.9082 41.8351C51.9082 44.1697 47.9794 46.056 43.1211 46.056C38.2628 46.056 34.334 44.1884 34.334 41.8351C34.334 39.4819 38.2628 37.6235 43.1211 37.6235C47.9794 37.6235 51.9082 39.5099 51.9082 41.8351Z" fill="#B1B1B1"/>
</g>
<g style="mix-blend-mode:multiply" opacity="0.53">
<path d="M51.7453 41.835C51.7453 44.1135 47.9123 45.9625 43.1211 45.9625C38.3298 45.9625 34.4968 44.0949 34.4968 41.835C34.4968 39.5751 38.3298 37.7168 43.1211 37.7168C47.9123 37.7168 51.7453 39.5564 51.7453 41.835Z" fill="#AEAEAE"/>
</g>
<g style="mix-blend-mode:multiply" opacity="0.55">
<path d="M51.5346 41.8349C51.5346 44.0668 47.7687 45.8691 43.1212 45.8691C38.4737 45.8691 34.7078 44.0668 34.7078 41.8349C34.7078 39.6031 38.4737 37.8008 43.1212 37.8008C47.7687 37.8008 51.5346 39.6124 51.5346 41.8349Z" fill="#ABABAB"/>
</g>
<g style="mix-blend-mode:multiply" opacity="0.57">
<path d="M51.3428 41.8353C51.3428 44.0205 47.6631 45.7854 43.121 45.7854C38.5789 45.7854 34.8896 44.0205 34.8896 41.8353C34.8896 39.6501 38.5789 37.8945 43.121 37.8945C47.6631 37.8945 51.3428 39.6595 51.3428 41.8353Z" fill="#A8A8A8"/>
</g>
<g style="mix-blend-mode:multiply" opacity="0.59">
<path d="M51.1511 41.8352C51.1511 43.9644 47.5577 45.692 43.1114 45.692C38.6651 45.692 35.0813 43.9644 35.0813 41.8352C35.0813 39.7061 38.6747 37.9785 43.121 37.9785C47.5673 37.9785 51.1511 39.7061 51.1511 41.8352Z" fill="#A5A5A5"/>
</g>
<g style="mix-blend-mode:multiply" opacity="0.61">
<path d="M43.1115 45.5985C47.4458 45.5985 50.9595 43.9136 50.9595 41.8351C50.9595 39.7567 47.4458 38.0718 43.1115 38.0718C38.7771 38.0718 35.2634 39.7567 35.2634 41.8351C35.2634 43.9136 38.7771 45.5985 43.1115 45.5985Z" fill="#A2A2A2"/>
</g>
<g style="mix-blend-mode:multiply" opacity="0.63">
<path d="M43.1115 45.505C47.34 45.505 50.7679 43.8619 50.7679 41.835C50.7679 39.8081 47.34 38.165 43.1115 38.165C38.883 38.165 35.4551 39.8081 35.4551 41.835C35.4551 43.8619 38.883 45.505 43.1115 45.505Z" fill="#9F9F9F"/>
</g>
<g style="mix-blend-mode:multiply" opacity="0.65">
<path d="M50.5762 41.8354C50.5762 43.8151 47.232 45.4493 43.1211 45.4493C39.0102 45.4493 35.6467 43.8431 35.6467 41.8634C35.6467 39.8837 38.9814 38.2588 43.1211 38.2588C47.2607 38.2588 50.5762 39.8463 50.5762 41.8354Z" fill="#9C9C9C"/>
</g>
<g style="mix-blend-mode:multiply" opacity="0.67">
<path d="M43.1115 45.3278C47.1337 45.3278 50.3942 43.7642 50.3942 41.8353C50.3942 39.9064 47.1337 38.3428 43.1115 38.3428C39.0894 38.3428 35.8289 39.9064 35.8289 41.8353C35.8289 43.7642 39.0894 45.3278 43.1115 45.3278Z" fill="#999999"/>
</g>
<g style="mix-blend-mode:multiply" opacity="0.69">
<path d="M50.2026 41.8352C50.2026 43.7028 47.0213 45.2437 43.1116 45.2437C39.202 45.2437 36.011 43.7215 36.011 41.8352C36.011 39.9488 39.1924 38.436 43.1212 38.436C47.05 38.436 50.2026 39.9582 50.2026 41.8352Z" fill="#969696"/>
</g>
<g style="mix-blend-mode:multiply" opacity="0.71">
<path d="M50.011 41.8351C50.011 43.7027 46.9159 45.1502 43.102 45.1502C39.2882 45.1502 36.2026 43.6654 36.2026 41.8351C36.2026 40.0048 39.2882 38.5293 43.1212 38.5293C46.9542 38.5293 50.011 40.0048 50.011 41.8351Z" fill="#939393"/>
</g>
<g style="mix-blend-mode:multiply" opacity="0.73">
<path d="M49.8288 41.835C49.8288 43.6186 46.8199 45.0567 43.1211 45.0567C39.4222 45.0567 36.4133 43.5813 36.4133 41.835C36.4133 40.0887 39.4222 38.6133 43.1211 38.6133C46.8199 38.6133 49.8288 40.0607 49.8288 41.835Z" fill="#909090"/>
</g>
<g style="mix-blend-mode:multiply" opacity="0.75">
<path d="M43.1018 44.9637C46.7059 44.9637 49.6275 43.5631 49.6275 41.8354C49.6275 40.1076 46.7059 38.707 43.1018 38.707C39.4978 38.707 36.5762 40.1076 36.5762 41.8354C36.5762 43.5631 39.4978 44.9637 43.1018 44.9637Z" fill="#8D8D8D"/>
</g>
<g style="mix-blend-mode:multiply" opacity="0.76">
<path d="M49.4455 41.8352C49.4455 43.5161 46.5708 44.8795 43.1019 44.8795C39.633 44.8795 36.7583 43.5161 36.7583 41.8352C36.7583 40.1543 39.633 38.8003 43.1019 38.8003C46.5708 38.8003 49.4455 40.1637 49.4455 41.8352Z" fill="#8A8A8A"/>
</g>
<g style="mix-blend-mode:multiply" opacity="0.78">
<path d="M49.2538 41.835C49.2538 43.4692 46.4941 44.7859 43.1019 44.7859C39.7097 44.7859 36.95 43.4692 36.95 41.835C36.95 40.2008 39.7001 38.9121 43.1211 38.9121C46.542 38.9121 49.2538 40.2101 49.2538 41.835Z" fill="#878787"/>
</g>
<g style="mix-blend-mode:multiply" opacity="0.8">
<path d="M49.0623 41.8351C49.0623 43.4132 46.3888 44.7019 43.102 44.7019C39.8152 44.7019 37.1321 43.4132 37.1321 41.8351C37.1321 40.2569 39.8056 38.9775 43.102 38.9775C46.3983 38.9775 49.0623 40.2569 49.0623 41.8351Z" fill="#848484"/>
</g>
<g style="mix-blend-mode:multiply" opacity="0.82">
<path d="M48.8706 41.8352C48.8706 43.3667 46.2833 44.6367 43.1211 44.6367C39.9589 44.6367 37.3716 43.3947 37.3716 41.8352C37.3716 40.2757 39.9589 39.0337 43.1211 39.0337C46.2833 39.0337 48.8706 40.313 48.8706 41.8352Z" fill="#818181"/>
</g>
<g style="mix-blend-mode:multiply" opacity="0.84">
<path d="M48.679 41.8354C48.679 43.3202 46.178 44.5155 43.1212 44.5155C40.0644 44.5155 37.5442 43.3202 37.5442 41.8354C37.5442 40.3506 40.0356 39.1553 43.1212 39.1553C46.2068 39.1553 48.679 40.3599 48.679 41.8354Z" fill="#7E7E7E"/>
</g>
<g style="mix-blend-mode:multiply" opacity="0.86">
<path d="M48.4874 41.8353C48.4874 43.264 46.0726 44.4313 43.0924 44.4313C40.1123 44.4313 37.6975 43.264 37.6975 41.8353C37.6975 40.4065 40.1123 39.2485 43.0924 39.2485C46.0726 39.2485 48.4874 40.4065 48.4874 41.8353Z" fill="#7B7B7B"/>
</g>
<g style="mix-blend-mode:multiply" opacity="0.88">
<path d="M48.3053 41.8351C48.3053 43.2172 45.9672 44.3378 43.0924 44.3378C40.2177 44.3378 37.8892 43.2172 37.8892 41.8351C37.8892 40.4531 40.2464 39.3418 43.1212 39.3418C45.9959 39.3418 48.3053 40.4624 48.3053 41.8351Z" fill="#787878"/>
</g>
<g style="mix-blend-mode:multiply" opacity="0.9">
<path d="M48.1135 41.835C48.1135 43.1704 45.8616 44.2443 43.0923 44.2443C40.3229 44.2443 38.071 43.1704 38.071 41.835C38.071 40.4996 40.3229 39.4351 43.0923 39.4351C45.8616 39.4351 48.1135 40.509 48.1135 41.835Z" fill="#757575"/>
</g>
<g style="mix-blend-mode:multiply" opacity="0.92">
<path d="M47.9123 41.8349C47.9123 43.1143 45.7467 44.1508 43.1211 44.1508C40.4955 44.1508 38.3298 43.1143 38.3298 41.8349C38.3298 40.5556 40.4859 39.519 43.1211 39.519C45.7563 39.519 47.9123 40.5556 47.9123 41.8349Z" fill="#727272"/>
</g>
<g style="mix-blend-mode:multiply" opacity="0.94">
<path d="M43.0923 44.0578C45.6591 44.0578 47.7398 43.0628 47.7398 41.8353C47.7398 40.6078 45.6591 39.6128 43.0923 39.6128C40.5256 39.6128 38.4448 40.6078 38.4448 41.8353C38.4448 43.0628 40.5256 44.0578 43.0923 44.0578Z" fill="#6F6F6F"/>
</g>
<g style="mix-blend-mode:multiply" opacity="0.96">
<path d="M47.5386 41.8352C47.5386 43.0212 45.5454 43.9737 43.0827 43.9737C40.62 43.9737 38.6365 43.0398 38.6365 41.8352C38.6365 40.6306 40.6296 39.7061 43.1211 39.7061C45.6125 39.7061 47.5386 40.6586 47.5386 41.8352Z" fill="#6C6C6C"/>
</g>
<g style="mix-blend-mode:multiply" opacity="0.98">
<path d="M47.3566 41.8351C47.3566 42.9651 45.4401 43.8802 43.0828 43.8802C40.7255 43.8802 38.8186 42.9464 38.8186 41.8351C38.8186 40.7239 40.7351 39.79 43.0828 39.79C45.4305 39.79 47.3566 40.7052 47.3566 41.8351Z" fill="#696969"/>
</g>
<g style="mix-blend-mode:multiply">
<path d="M47.165 41.8353C47.165 42.9185 45.3347 43.7963 43.0828 43.7963C40.8309 43.7963 39.0103 42.9185 39.0103 41.8353C39.0103 40.752 40.8309 39.8462 43.1211 39.8462C45.4114 39.8462 47.165 40.78 47.165 41.8353Z" fill="#666666"/>
</g>
</g>
<path d="M37.0745 38.9871L46.2641 38.7256L37.0745 38.9871Z" fill="#21BFA2"/>
<path d="M37.0745 38.9868C36.9943 38.9876 36.9155 39.0068 36.8445 39.0429C36.9155 39.0068 36.9943 38.9876 37.0745 38.9868V38.9868Z" fill="#21BFA2"/>
<path d="M36.7488 39.127C36.7735 39.0921 36.8063 39.0633 36.8446 39.043C36.8063 39.0633 36.7735 39.0921 36.7488 39.127V39.127Z" fill="#21BFA2"/>
<path d="M36.7466 39.127C36.7355 39.1631 36.7355 39.2029 36.7466 39.239C36.7355 39.2029 36.7355 39.1631 36.7466 39.127V39.127Z" fill="#21BFA2"/>
<path d="M48.2955 39.0055C48.2955 39.0055 48.2955 39.0055 48.2955 39.0709C48.278 39.1565 48.2456 39.2386 48.1996 39.3137C48.1194 39.4348 48.019 39.5421 47.9026 39.6312L46.9443 40.3595L47.9026 40.5556L48.2284 40.621C48.2763 40.5248 48.3024 40.4197 48.305 40.3129V38.9121C48.305 38.9121 48.2955 38.9868 48.2955 39.0055Z" fill="#198F7A"/>
<path d="M44.4817 40.6493L44.5392 40.5933L44.4817 40.6493Z" fill="#A6E5DA"/>
<path d="M44.4722 40.6863L44.4797 40.6489L44.4722 40.6863Z" fill="#7AD9C7"/>
<path d="M44.4818 40.6489L44.5393 40.5929L46.5804 39.0707L46.6475 39.0147C46.6568 38.9957 46.6617 38.975 46.6617 38.954C46.6617 38.933 46.6568 38.9122 46.6475 38.8933C46.6256 38.8482 46.5884 38.8118 46.5421 38.7906C46.4567 38.7459 46.361 38.7234 46.2642 38.7252L37.0746 38.9867C36.9945 38.9874 36.9157 39.0066 36.8446 39.0427C36.8063 39.063 36.7735 39.0918 36.7488 39.1267L44.4818 40.6489Z" fill="#A6E5DA"/>
<path d="M50.9691 41.2187C50.8651 41.1601 50.7517 41.119 50.6337 41.0973L48.2189 40.6211L47.9123 40.5557L46.954 40.3596L47.9123 39.6312C48.0287 39.5422 48.1291 39.4349 48.2093 39.3137C48.2552 39.2387 48.2876 39.1566 48.3051 39.0709C48.3051 39.0709 48.3051 39.0709 48.3051 39.0055C48.3126 38.8573 48.2792 38.7099 48.2084 38.5785C48.1376 38.4471 48.0321 38.3366 47.9027 38.2585L47.7206 38.1371C47.248 37.8975 46.7197 37.7817 46.1874 37.8009L36.9978 38.0624C36.6593 38.0436 36.321 38.1022 36.0098 38.2336C35.6987 38.3649 35.4234 38.5653 35.2059 38.8188C35.1462 38.9093 35.1091 39.0122 35.0975 39.1192C35.0858 39.2262 35.1 39.3344 35.1388 39.4351V39.4911C35.1777 39.5703 35.2294 39.6428 35.2921 39.7059L35.3496 39.7713C35.4418 39.8608 35.5448 39.9392 35.6563 40.0047H35.7521L42.6802 43.4319C43.2541 43.6925 43.8947 43.7802 44.5201 43.684C44.7914 43.6657 45.0557 43.5912 45.2953 43.4656C45.5348 43.34 45.7442 43.1662 45.9095 42.9556C45.9791 42.8492 46.0188 42.7268 46.0245 42.6008V41.6669L49.8288 42.4607C50.0296 42.5149 50.2419 42.5148 50.4427 42.4605C50.6436 42.4063 50.8255 42.2998 50.9691 42.1525L51.2182 41.7416C51.2308 41.6926 51.2308 41.6413 51.2182 41.5922C51.2137 41.5142 51.1883 41.4387 51.1446 41.3732C51.1009 41.3076 51.0404 41.2544 50.9691 41.2187V41.2187ZM44.5392 40.593L44.4817 40.6491V40.7144L44.4242 42.5821V42.6475C44.4021 42.6845 44.3686 42.7139 44.3284 42.7315C44.2548 42.7698 44.1723 42.7891 44.0888 42.7875C44.0001 42.791 43.9117 42.7751 43.8301 42.7408L36.902 39.3043C36.8605 39.2799 36.8272 39.2442 36.8062 39.2016C36.7922 39.1655 36.7922 39.1257 36.8062 39.0896C36.8309 39.0546 36.8637 39.0258 36.902 39.0055C36.973 38.9694 37.0518 38.9502 37.132 38.9495L46.3216 38.688C46.4184 38.6862 46.5141 38.7088 46.5995 38.7534C46.6458 38.7747 46.683 38.811 46.7049 38.8561C46.7142 38.875 46.7191 38.8958 46.7191 38.9168C46.7191 38.9378 46.7142 38.9586 46.7049 38.9775L46.6378 39.0335L44.5392 40.593Z" fill="#21BFA2"/>
<path d="M36.7488 39.127C36.7348 39.1631 36.7348 39.2029 36.7488 39.239C36.7698 39.2816 36.8031 39.3173 36.8446 39.3417V39.3417L43.7727 42.7782C43.8543 42.8124 43.9427 42.8284 44.0314 42.8249C44.1149 42.8265 44.1974 42.8072 44.271 42.7689C44.3112 42.7513 44.3447 42.7219 44.3668 42.6849V42.6195L44.4243 40.7518V40.6865L36.7488 39.127Z" fill="#7AD9C7"/>
<path d="M51.2373 41.592C51.2499 41.6411 51.2499 41.6924 51.2373 41.7414L50.9882 42.1523C50.8429 42.3029 50.6577 42.4114 50.453 42.4658C50.2484 42.5202 50.0323 42.5183 49.8287 42.4605L46.0724 41.7134V42.6473C46.0666 42.7733 46.027 42.8957 45.9574 43.0021C45.7921 43.2127 45.5827 43.3865 45.3431 43.5121C45.1036 43.6377 44.8393 43.7121 44.5679 43.7305C43.9425 43.8267 43.3019 43.7389 42.7281 43.4784L35.7999 40.0512H35.7041C35.5926 39.9857 35.4897 39.9073 35.3975 39.8177L35.34 39.7524C35.2773 39.6893 35.2255 39.6168 35.1867 39.5376V39.4816C35.1722 39.4013 35.1722 39.3191 35.1867 39.2388V40.6115C35.1985 40.7862 35.2605 40.9541 35.3655 41.0961C35.4706 41.2381 35.6145 41.3485 35.7808 41.4146L35.8766 41.4706L42.7951 44.8978C43.3749 45.1501 44.017 45.2344 44.6446 45.1406C44.9159 45.1222 45.1802 45.0478 45.4198 44.9222C45.6593 44.7966 45.8687 44.6227 46.034 44.4122C46.0992 44.3072 46.1386 44.189 46.149 44.0667V43.1328L49.867 43.8706C50.0678 43.9258 50.2803 43.9263 50.4814 43.8719C50.6825 43.8176 50.8644 43.7105 51.0073 43.5624L51.2661 43.1515C51.2788 43.0962 51.2788 43.0388 51.2661 42.9834V41.5827L51.2373 41.592Z" fill="#198F7A"/>
<path d="M36.9786 2.38088V1.10153C36.9766 0.854235 36.9083 0.611747 36.7805 0.398084C36.6527 0.184421 36.4699 0.00699695 36.2501 -0.116611C36.0303 -0.240219 35.7812 -0.305722 35.5274 -0.306631C35.2737 -0.30754 35.0241 -0.243823 34.8034 -0.121793L10.1189 13.7736C9.5297 14.1051 9.04164 14.5834 8.70484 15.1594C8.36803 15.7354 8.19462 16.3884 8.2024 17.0514V18.5922V46.6071L8.78693 47.0087L37.0265 30.3678L36.9786 2.38088Z" fill="#198F7A"/>
<path d="M8.80621 46.9713L37.6016 30.7693V2.75439L8.7583 18.9844L8.80621 46.9713Z" fill="#D3F2EC"/>
<path d="M37.5633 2.78232V1.50297C37.5651 1.2532 37.4989 1.00742 37.3713 0.790775C37.2438 0.574131 37.0594 0.394398 36.8372 0.269961C36.6149 0.145524 36.3628 0.0808495 36.1065 0.0825523C35.8502 0.0842551 35.5989 0.152275 35.3784 0.279653L10.694 14.1751C10.1062 14.5057 9.61909 14.9826 9.28237 15.5568C8.94565 16.131 8.77142 16.7821 8.7775 17.4435V18.9843L37.5633 2.78232Z" fill="#21BFA2"/>
<path d="M36.2218 8.63763L11.2402 22.7758V21.8887L36.2218 7.75049V8.63763Z" fill="#21BFA2"/>
<path d="M36.2218 6.91009L11.2402 21.0483V20.1612L36.2218 6.02295V6.91009Z" fill="#21BFA2"/>
<path d="M32.9158 17.2754L15.4182 27.118V36.4563L32.9446 26.595L32.9158 17.2754ZM19.6058 28.5841L19.4812 28.8829C19.2427 29.4334 19.0504 30.0018 18.9062 30.5825C18.8069 31.0337 18.7555 31.4937 18.7529 31.9552V32.1233C18.7361 32.3608 18.6634 32.5913 18.5404 32.7969C18.4174 33.0026 18.2475 33.1779 18.0438 33.3093C17.6413 33.5334 17.3155 33.356 17.3155 32.9077V32.6463C17.3143 32.2652 17.3626 31.8855 17.4593 31.5163C17.57 31.1125 17.7241 30.7212 17.9192 30.349C18.0246 30.1436 18.2259 29.8074 18.5229 29.3498C18.82 28.8923 19.05 28.5094 19.1937 28.2292L18.8871 28.5281C18.7902 28.6066 18.6877 28.6784 18.5804 28.7428C18.4095 28.837 18.2299 28.9152 18.0438 28.9763C17.9111 29.013 17.7826 29.063 17.6605 29.1257C17.4762 29.2267 17.3313 29.3843 17.2485 29.5739C17.1642 29.785 17.1251 30.0106 17.1335 30.237V30.5078L16.3477 30.9467V28.7242L17.1431 28.2759V28.7615C17.2312 28.5333 17.3539 28.3192 17.5072 28.1265C17.6522 27.9485 17.8312 27.7995 18.0342 27.6876C18.2731 27.5538 18.537 27.4681 18.8104 27.4355C18.993 27.4237 19.1734 27.3892 19.347 27.3328C19.4154 27.2923 19.4742 27.2382 19.5195 27.174C19.5577 27.1086 19.5775 27.0345 19.577 26.9592V26.9032L20.1807 26.567V26.7164C20.0859 27.3635 19.8921 27.993 19.6058 28.5841V28.5841ZM20.9569 32.0486V25.3157L21.4743 25.0169V31.7498L20.9569 32.0486ZM25.5852 25.2223C25.5373 25.3437 25.4894 25.4464 25.4606 25.5118C25.2277 26.0674 25.0355 26.6385 24.8857 27.2207C24.7806 27.6867 24.7324 28.1631 24.742 28.6401V28.8082C24.7266 29.0533 24.6527 29.2915 24.5263 29.5038C24.3999 29.7162 24.2244 29.8969 24.0137 30.0315C23.6112 30.2556 23.2854 30.0315 23.2854 29.6206V29.3685C23.281 28.9879 23.3261 28.6082 23.4196 28.2386C23.5303 27.8348 23.6844 27.4435 23.8795 27.0713C23.9818 26.8658 24.183 26.5297 24.4832 26.0627C24.7899 25.5958 25.0103 25.2223 25.154 24.9515C25.0617 25.0574 24.959 25.1544 24.8474 25.241C24.7522 25.3216 24.6495 25.3935 24.5407 25.4558C24.3732 25.55 24.1967 25.6281 24.0137 25.6892L23.6304 25.8386C23.4583 25.9276 23.3205 26.0684 23.2375 26.2402C23.1524 26.451 23.1133 26.6768 23.1225 26.9032V27.1647L22.3272 27.6129V25.353L23.1225 24.9141V25.3904C23.2128 25.1632 23.3354 24.9494 23.4867 24.7554C23.6342 24.5798 23.8127 24.4312 24.0137 24.3165C24.2531 24.1857 24.5171 24.1032 24.7899 24.0737C24.9733 24.0616 25.1541 24.0239 25.3265 23.9616C25.3991 23.9268 25.4592 23.8715 25.499 23.8029C25.5368 23.7407 25.5566 23.6697 25.5565 23.5974V23.5414L26.1698 23.2052V23.3453C26.0746 23.9964 25.8775 24.6295 25.5852 25.2223V25.2223ZM26.9364 28.6401V21.9072L27.4634 21.6177V28.3506L26.9364 28.6401ZM31.6222 21.8418C31.5743 21.9726 31.5264 22.0753 31.4976 22.1407C31.2635 22.6927 31.0713 23.2607 30.9227 23.8402C30.8218 24.2911 30.7736 24.7516 30.7789 25.213V25.3904C30.7651 25.6345 30.6918 25.872 30.5652 26.0831C30.4386 26.2942 30.2622 26.4728 30.0507 26.6044C29.6578 26.8285 29.332 26.6511 29.332 26.2028V25.9507C29.3276 25.567 29.3727 25.1842 29.4661 24.8114C29.5768 24.4076 29.731 24.0163 29.9261 23.6441C30.0315 23.448 30.2327 23.1025 30.5394 22.6356C30.846 22.1687 31.0568 21.8045 31.2006 21.5243C31.1057 21.6308 31.0032 21.7307 30.8939 21.8231C30.7987 21.9038 30.6961 21.9757 30.5873 22.0379C30.4197 22.1321 30.2432 22.2103 30.0602 22.2714C29.9269 22.3062 29.7982 22.3564 29.6769 22.4208C29.5073 22.5128 29.3703 22.6528 29.2841 22.8223C29.1986 23.0298 29.1595 23.2527 29.1691 23.476V23.7468L28.3737 24.1857V21.9819L29.1691 21.5337V22.0193C29.2572 21.791 29.3799 21.577 29.5332 21.3842C29.6805 21.2059 29.8589 21.0541 30.0602 20.936C30.3016 20.8095 30.5646 20.7272 30.8364 20.6932C31.0192 20.6826 31.1997 20.648 31.373 20.5905C31.4435 20.5528 31.5029 20.4982 31.5455 20.4317C31.5878 20.368 31.6079 20.2927 31.603 20.217V20.1703L32.2163 19.8247V19.9648C32.1195 20.6168 31.9191 21.25 31.6222 21.8418V21.8418Z" fill="#F9F132"/>
<path d="M32.9541 28.3695L34.5448 27.4356V25.6614V16.323V14.6328L32.9541 15.5666L15.4086 25.3439L13.8179 26.2777V26.6232V39.1552L15.4086 38.2214L32.9541 28.3695ZM15.4181 27.1181L32.9157 17.2756V26.6139L15.4469 36.4378L15.4181 27.1181Z" fill="#E8630B"/>
<path d="M20.1902 26.5674L19.5865 26.9036V26.9596C19.5869 27.0349 19.5671 27.1089 19.529 27.1744C19.4837 27.2386 19.4249 27.2927 19.3565 27.3331C19.1828 27.3895 19.0025 27.424 18.8199 27.4358C18.5465 27.4685 18.2825 27.5542 18.0437 27.688C17.8407 27.7998 17.6617 27.9489 17.5167 28.1269C17.3634 28.3196 17.2406 28.5337 17.1525 28.7619V28.2763L16.3572 28.7245V30.9284L17.1525 30.5081V30.2373C17.138 30.0123 17.1706 29.7867 17.2483 29.5743C17.3336 29.4096 17.4669 29.2731 17.6316 29.1821C17.7537 29.1194 17.8822 29.0694 18.0149 29.0327C18.201 28.9716 18.3807 28.8934 18.5516 28.7992C18.6588 28.7348 18.7613 28.663 18.8582 28.5845L19.1648 28.267C19.0211 28.5471 18.7911 28.9113 18.4941 29.3876C18.197 29.8638 17.9958 30.1813 17.8904 30.3867C17.6953 30.759 17.5411 31.1502 17.4304 31.554C17.3337 31.9233 17.2854 32.3029 17.2867 32.684V32.9454C17.2867 33.3937 17.6125 33.5711 18.0149 33.347C18.2254 33.213 18.4003 33.0322 18.5252 32.8195C18.6502 32.6069 18.7216 32.3684 18.7336 32.1237V31.9556C18.7362 31.4941 18.7876 31.0341 18.887 30.5829C19.0312 30.0021 19.2234 29.4337 19.4619 28.8833L19.5865 28.5845C19.8795 27.9945 20.0798 27.3649 20.1806 26.7168V26.5674H20.1902Z" fill="#F2460B"/>
<path d="M20.9377 25.3159L20.9569 32.0488L21.4744 31.75L21.4552 25.0171L20.9377 25.3159Z" fill="white"/>
<path d="M26.1792 23.2056L25.566 23.5417V23.5978C25.5661 23.6701 25.5463 23.741 25.5085 23.8032C25.4687 23.8718 25.4085 23.9271 25.336 23.962C25.1636 24.0242 24.9828 24.062 24.7994 24.074C24.5266 24.1035 24.2626 24.1861 24.0232 24.3168C23.8222 24.4315 23.6437 24.5801 23.4962 24.7557C23.3449 24.9498 23.2223 25.1635 23.132 25.3907V24.9051L22.3367 25.344V27.5572L23.132 27.109V26.8475C23.1228 26.6211 23.1619 26.3953 23.247 26.1845C23.33 26.0128 23.4678 25.8719 23.6399 25.7829L24.0232 25.6335C24.2062 25.5725 24.3827 25.4943 24.5502 25.4001C24.659 25.3379 24.7617 25.266 24.8569 25.1853C24.9684 25.0987 25.0711 25.0017 25.1635 24.8958C25.0198 25.1666 24.7994 25.5401 24.4927 26.0071C24.1861 26.474 23.9944 26.8102 23.889 27.0156C23.6939 27.3878 23.5398 27.7791 23.4291 28.1829C23.3356 28.5525 23.2905 28.9322 23.2949 29.3128V29.5743C23.2949 30.0225 23.6207 30.2093 24.0232 29.9852C24.2339 29.8505 24.4094 29.6698 24.5358 29.4575C24.6622 29.2451 24.7361 29.0069 24.7515 28.7619V28.6405C24.7482 28.1627 24.8028 27.6863 24.9144 27.221C25.0642 26.6388 25.2563 26.0678 25.4893 25.5121C25.4893 25.4468 25.566 25.344 25.6139 25.2226C25.9119 24.6338 26.1154 24.0039 26.2176 23.355V23.2149L26.1792 23.2056Z" fill="#F2460B"/>
<path d="M26.9172 21.9448L26.9364 28.6777L27.4634 28.3882L27.4443 21.6553L26.9172 21.9448Z" fill="white"/>
<path d="M32.178 19.8252L31.5647 20.1707V20.2361C31.5696 20.3118 31.5495 20.3871 31.5073 20.4509C31.4647 20.5173 31.4053 20.572 31.3348 20.6096C31.1614 20.6672 30.9809 20.7017 30.7981 20.7123C30.5264 20.7464 30.2633 20.8287 30.022 20.9551C29.8207 21.0733 29.6423 21.225 29.4949 21.4034C29.3416 21.5961 29.2189 21.8101 29.1308 22.0384V21.5528L28.3354 22.001V24.2049L29.1308 23.766V23.4952C29.1212 23.2718 29.1604 23.049 29.2458 22.8415C29.332 22.6719 29.469 22.5319 29.6387 22.4399C29.7599 22.3755 29.8886 22.3254 30.022 22.2905C30.205 22.2294 30.3815 22.1513 30.549 22.0571C30.6578 21.9948 30.7605 21.9229 30.8556 21.8423C30.9649 21.7498 31.0674 21.6499 31.1623 21.5434C31.0185 21.8236 30.7981 22.1878 30.5011 22.6547C30.204 23.1216 29.9932 23.4671 29.8878 23.6632C29.6927 24.0355 29.5385 24.4267 29.4279 24.8305C29.3344 25.2033 29.2893 25.5861 29.2937 25.9698V26.2219C29.2937 26.6702 29.6195 26.8476 30.0124 26.6235C30.2239 26.492 30.4003 26.3133 30.5269 26.1022C30.6536 25.8911 30.7268 25.6537 30.7407 25.4095V25.2321C30.7353 24.7707 30.7835 24.3102 30.8844 23.8593C31.033 23.2799 31.2252 22.7118 31.4593 22.1598C31.4593 22.0944 31.536 21.9917 31.5839 21.8609C31.8832 21.2726 32.0868 20.6425 32.1876 19.9933V19.8532L32.178 19.8252Z" fill="#F2460B"/>
<path d="M34.5449 29.2568L13.866 40.8924V42.676L34.5545 31.0311L34.5449 29.2568Z" fill="#198F7A"/>
<path d="M34.4969 11.0376L13.8083 22.6825L13.8179 24.4568L34.4969 12.8212V11.0376Z" fill="#198F7A"/>
</g>
<defs>
<linearGradient id="paint0_linear_104_4836" x1="3.277" y1="49.7822" x2="69.9998" y2="49.7822" gradientUnits="userSpaceOnUse">
<stop stop-color="#4C4C4C"/>
<stop offset="0.05" stop-color="#747474"/>
<stop offset="0.11" stop-color="#A5A5A5"/>
<stop offset="0.18" stop-color="#CCCCCC"/>
<stop offset="0.23" stop-color="#E8E8E8"/>
<stop offset="0.28" stop-color="#F9F9F9"/>
<stop offset="0.32" stop-color="white"/>
<stop offset="0.36" stop-color="#F4F4F4"/>
<stop offset="0.44" stop-color="#D7D7D7"/>
<stop offset="0.53" stop-color="#A8A8A8"/>
<stop offset="0.64" stop-color="#676767"/>
<stop offset="0.69" stop-color="#4C4C4C"/>
<stop offset="0.73" stop-color="#616161"/>
<stop offset="0.82" stop-color="#979797"/>
<stop offset="0.94" stop-color="#E8E8E8"/>
<stop offset="0.97" stop-color="#E6E6E6"/>
<stop offset="0.98" stop-color="#D4D4D4"/>
<stop offset="0.99" stop-color="#919191"/>
<stop offset="1" stop-color="#4C4C4C"/>
</linearGradient>
<clipPath id="clip0_104_4836">
<rect width="70" height="70" fill="white" transform="translate(0 0.691406)"/>
</clipPath>
</defs>
</svg>
